<svg width="335" height="318" viewBox="0 0 335 318" fill="none" xmlns="http://www.w3.org/2000/svg">
<g clip-path="url(#clip0)">
<path d="M292.811 149.821C293.246 150.334 293.569 150.934 293.759 151.581C293.949 152.227 294.001 152.907 293.913 153.575C293.824 154.244 293.597 154.886 293.246 155.461C292.895 156.035 292.427 156.529 291.874 156.911L268.478 173.042L258.176 179.939C257.591 180.33 256.881 180.49 256.186 180.385C255.49 180.281 254.858 179.92 254.413 179.373C254.153 179.055 253.965 178.683 253.863 178.284C253.76 177.886 253.745 177.47 253.818 177.064C253.891 176.659 254.051 176.275 254.287 175.938C254.522 175.601 254.828 175.319 255.183 175.113L265.161 169.294L282.575 152.639L271.38 140.564L279.673 134.318L292.811 149.821Z" fill="#A0616A"/>
<path d="M237.795 301.704H232.072L228.673 254.236L243.185 253.82L237.795 301.704Z" fill="#A0616A"/>
<path d="M238.21 317.11C236.684 317.809 235.406 312.143 234.119 313.413C230.518 316.966 225.005 317.74 220.199 316.189L221.881 316.17C221.591 316.076 221.323 315.924 221.093 315.724C220.863 315.523 220.676 315.277 220.544 315.002C220.411 314.727 220.335 314.427 220.321 314.122C220.308 313.816 220.355 313.511 220.462 313.224C220.59 312.882 220.799 312.575 221.071 312.331C221.343 312.088 221.67 311.914 222.024 311.825L225.853 310.864L231.865 300.246L238.003 299.83C239.371 301.582 240.326 303.622 240.796 305.798C241.265 307.974 241.238 310.228 240.715 312.392C240.158 314.675 239.298 316.611 238.21 317.11Z" fill="#2F2E41"/>
<path d="M275.9 301.704H270.177L266.778 254.236L281.705 251.322L275.9 301.704Z" fill="#A0616A"/>
<path d="M276.315 317.11C274.789 317.809 273.511 312.143 272.224 313.413C268.623 316.966 263.11 317.74 258.304 316.189L259.986 316.17C259.696 316.076 259.428 315.924 259.198 315.724C258.968 315.523 258.781 315.277 258.649 315.002C258.516 314.727 258.44 314.427 258.426 314.122C258.412 313.816 258.46 313.511 258.567 313.224C258.695 312.882 258.904 312.575 259.176 312.332C259.448 312.088 259.775 311.914 260.129 311.825L263.958 310.864L269.97 300.246L276.522 299.414L276.688 299.685C277.954 301.735 278.771 304.033 279.083 306.425C279.395 308.818 279.196 311.249 278.498 313.558C277.953 315.311 277.211 316.699 276.315 317.11Z" fill="#2F2E41"/>
<path d="M282.389 135.392C277.126 136.127 273.483 139.022 271.999 144.795L262.325 126.859C261.751 125.719 261.606 124.41 261.916 123.171C262.225 121.932 262.969 120.847 264.01 120.114C265.116 119.336 266.476 119.012 267.811 119.208C269.147 119.405 270.357 120.106 271.194 121.17L282.389 135.392Z" fill="#F0001A"/>
<path d="M292.526 249.24C269.005 259.69 244.934 260.976 220.381 254.236C229.347 219.315 239.934 187.738 239.868 161.799L263.917 159.717L267.62 165.612C276.405 179.599 282.469 195.131 285.49 211.387L292.526 249.24Z" fill="#2F2E41"/>
<path d="M253.137 108.086C260.006 108.086 265.575 102.494 265.575 95.5947C265.575 88.6958 260.006 83.1032 253.137 83.1032C246.267 83.1032 240.698 88.6958 240.698 95.5947C240.698 102.494 246.267 108.086 253.137 108.086Z" fill="#A0616A"/>
<path d="M266.819 117.663L251.478 118.496L248.99 104.755L261.429 102.673L266.819 117.663Z" fill="#A0616A"/>
<path d="M265.161 161.799L248.354 162.275L239.868 163.465C235.703 149.648 232.197 135.863 240.698 124.325L250.649 114.332L265.575 113.915L265.773 114.029C268.144 115.393 269.981 117.527 270.982 120.08C271.983 122.632 272.088 125.451 271.28 128.072C267.576 140.16 265.197 151.575 265.161 161.799Z" fill="#F0001A"/>
<path d="M239.454 200.523L238.411 214.831C238.355 215.598 238.026 216.318 237.483 216.86C236.94 217.401 236.221 217.728 235.457 217.779C235.017 217.808 234.576 217.745 234.161 217.594C233.747 217.443 233.369 217.206 233.05 216.9C232.732 216.594 232.481 216.224 232.312 215.815C232.144 215.405 232.063 214.965 232.073 214.523L232.405 200.523L242.771 160.967L243.185 136.816L254.795 136.4L253.966 164.298L239.454 200.523Z" fill="#A0616A"/>
<path d="M256.039 138.482C251.117 136.472 246.52 137.145 242.356 141.397L242.927 121.006C242.998 119.731 243.526 118.525 244.411 117.608C245.297 116.691 246.482 116.126 247.749 116.015C249.093 115.898 250.432 116.301 251.49 117.143C252.549 117.984 253.246 119.2 253.441 120.542L256.039 138.482Z" fill="#F0001A"/>
<path d="M279.466 151.182H241.32C250.218 127.518 253.088 105.504 241.32 86.6424C241.522 80.9773 248.757 76.0662 254.376 76.6088C261.012 77.2496 269.93 82.1468 271.173 88.7243L279.466 151.182Z" fill="#2F2E41"/>
<path d="M157.896 75.5687H156.156V27.7033C156.156 24.0652 155.443 20.4628 154.056 17.1017C152.67 13.7406 150.638 10.6866 148.076 8.11409C145.515 5.54161 142.473 3.501 139.126 2.10879C135.779 0.716576 132.192 1.96154e-05 128.569 3.05177e-05H27.5868C23.964 2.24844e-05 20.3768 0.716584 17.0298 2.1088C13.6828 3.50101 10.6417 5.54162 8.08 8.1141C5.51834 10.6866 3.48631 13.7406 2.09995 17.1017C0.71359 20.4628 4.17766e-05 24.0652 4.57764e-05 27.7033V290.297C4.29194e-05 293.935 0.71359 297.537 2.09995 300.898C3.48631 304.259 5.51834 307.313 8.08 309.886C10.6417 312.458 13.6828 314.499 17.0298 315.891C20.3768 317.283 23.964 318 27.5868 318H128.569C132.192 318 135.779 317.283 139.126 315.891C142.473 314.499 145.515 312.458 148.076 309.886C150.638 307.314 152.67 304.259 154.056 300.898C155.443 297.537 156.156 293.935 156.156 290.297V109.64H157.896V75.5687Z" fill="#3F3D56"/>
<path d="M129.683 7.20743H116.501C117.107 8.69988 117.339 10.3191 117.175 11.9226C117.011 13.526 116.457 15.0643 115.562 16.4021C114.666 17.7399 113.457 18.8361 112.041 19.594C110.624 20.352 109.044 20.7485 107.439 20.7486H49.5872C47.9821 20.7485 46.4017 20.352 44.9852 19.594C43.5687 18.8361 42.3596 17.7399 41.4643 16.4021C40.569 15.0643 40.0151 13.526 39.8513 11.9226C39.6875 10.3191 39.9189 8.69988 40.5251 7.20743H28.2135C25.5081 7.20742 22.8292 7.74254 20.3297 8.78223C17.8302 9.82192 15.5591 11.3458 13.6461 13.2669C11.7331 15.188 10.2156 17.4687 9.18026 19.9787C8.14494 22.4888 7.61206 25.179 7.61206 27.8959V290.104C7.61206 292.821 8.14493 295.511 9.18025 298.021C10.2156 300.531 11.7331 302.812 13.6461 304.733C15.5591 306.654 17.8302 308.178 20.3297 309.218C22.8292 310.258 25.5081 310.793 28.2135 310.793H129.683C132.388 310.793 135.067 310.258 137.566 309.218C140.066 308.178 142.337 306.654 144.25 304.733C146.163 302.812 147.68 300.531 148.716 298.021C149.751 295.511 150.284 292.821 150.284 290.104V27.8958C150.284 22.4089 148.113 17.1467 144.25 13.2669C140.386 9.38708 135.146 7.20742 129.683 7.20743Z" fill="white"/>
<path d="M132.466 48.1662H25.4297V140.362H132.466V48.1662Z" fill="#E6E6E6"/>
<path d="M57.1926 159.588C61.5181 159.588 65.0246 156.066 65.0246 151.723C65.0246 147.379 61.5181 143.857 57.1926 143.857C52.8672 143.857 49.3607 147.379 49.3607 151.723C49.3607 156.066 52.8672 159.588 57.1926 159.588Z" fill="#F0001A"/>
<path d="M61.1088 151.067H57.8454V147.79H56.5401V151.067H53.2768V152.378H56.5401V155.655H57.8454V152.378H61.1088V151.067Z" fill="white"/>
<path d="M98.5279 159.588C102.853 159.588 106.36 156.066 106.36 151.723C106.36 147.379 102.853 143.857 98.5279 143.857C94.2025 143.857 90.696 147.379 90.696 151.723C90.696 156.066 94.2025 159.588 98.5279 159.588Z" fill="#F0001A"/>
<path d="M102.444 152.378V151.067H94.6119V152.378H102.444Z" fill="white"/>
<path d="M82.9401 59.6644H74.4815C74.1841 59.6644 73.8988 59.783 73.6885 59.9942C73.4782 60.2054 73.36 60.4919 73.36 60.7906V64.519C73.36 64.8177 73.4782 65.1041 73.6885 65.3153C73.8988 65.5265 74.1841 65.6452 74.4815 65.6452H75.8832V71.2316H81.5384V65.6452H82.9401C83.2375 65.6452 83.5227 65.5265 83.7331 65.3153C83.9434 65.1041 84.0615 64.8177 84.0615 64.519V60.7906C84.0615 60.4919 83.9434 60.2055 83.7331 59.9943C83.5227 59.7831 83.2375 59.6644 82.9401 59.6644Z" fill="#F0001A"/>
<path d="M91.4122 93.7868C86.2319 86.1746 83.5837 77.1112 83.8468 67.895C83.8515 67.6824 83.7828 67.4746 83.6523 67.3071C83.5218 67.1395 83.3376 67.0225 83.1309 66.9759V65.3649H74.1975V66.9535H74.0744C73.9541 66.9537 73.8349 66.9776 73.7238 67.024C73.6126 67.0704 73.5116 67.1384 73.4266 67.224C73.3416 67.3096 73.2742 67.4111 73.2283 67.5229C73.1824 67.6346 73.1588 67.7543 73.159 67.8752C73.159 67.8976 73.1598 67.9199 73.1615 67.9422C73.8653 77.7943 71.4888 86.6294 66.0319 94.4476C65.7179 94.8969 65.5575 95.4363 65.5747 95.985L66.5516 126.329C66.575 127.005 66.8579 127.647 67.3411 128.119C67.8243 128.592 68.4706 128.858 69.1449 128.864H89.3509C90.0329 128.858 90.6859 128.585 91.1706 128.103C91.6553 127.622 91.9334 126.969 91.9458 126.284L92.3222 96.8227C92.3334 95.7414 92.0159 94.6823 91.4122 93.7868Z" fill="#3F3D56"/>
<path opacity="0.2" d="M81.1768 60.8793C81.1768 61.5237 80.9219 62.1417 80.4681 62.5973C80.0144 63.053 79.399 63.3089 78.7573 63.3089C78.1156 63.3089 77.5002 63.053 77.0465 62.5973C76.5927 62.1417 76.3378 61.5237 76.3378 60.8793" fill="black"/>
<path d="M88.2136 103.866H85.7668C85.5332 102.344 84.7649 100.956 83.6007 99.9531C82.4366 98.9504 80.9535 98.3992 79.4198 98.3992C77.8861 98.3992 76.4031 98.9504 75.2389 99.9531C74.0748 100.956 73.3064 102.344 73.0728 103.866H70.6259C70.3655 103.866 70.1083 103.923 69.8717 104.032C69.6352 104.141 69.425 104.3 69.2554 104.499C69.0859 104.697 68.9611 104.93 68.8896 105.181C68.8181 105.433 68.8016 105.697 68.8412 105.955L71.4989 123.303H86.7602L89.9884 106.013C90.0373 105.752 90.0281 105.482 89.9615 105.224C89.8949 104.966 89.7726 104.726 89.6031 104.521C89.4337 104.316 89.2213 104.151 88.9812 104.038C88.741 103.925 88.4789 103.866 88.2136 103.866V103.866Z" fill="#F0001A"/>
<path d="M132.466 177.939H25.4297V270.135H132.466V177.939Z" fill="#E6E6E6"/>
<path d="M57.1926 289.361C61.5181 289.361 65.0246 285.839 65.0246 281.496C65.0246 277.152 61.5181 273.631 57.1926 273.631C52.8672 273.631 49.3607 277.152 49.3607 281.496C49.3607 285.839 52.8672 289.361 57.1926 289.361Z" fill="#F0001A"/>
<path d="M61.1088 280.84H57.8454V277.563H56.5401V280.84H53.2768V282.151H56.5401V285.428H57.8454V282.151H61.1088V280.84Z" fill="white"/>
<path d="M98.5279 289.361C102.853 289.361 106.36 285.839 106.36 281.496C106.36 277.152 102.853 273.631 98.5279 273.631C94.2025 273.631 90.696 277.152 90.696 281.496C90.696 285.839 94.2025 289.361 98.5279 289.361Z" fill="#F0001A"/>
<path d="M102.444 282.151V280.84H94.6119V282.151H102.444Z" fill="white"/>
<path d="M100.019 243.437L100.079 243.437C102.094 243.454 104.067 242.86 105.742 241.734C107.416 240.608 108.714 239.001 109.465 237.123C111.833 231.111 112.387 224.532 111.059 218.206C109.731 211.88 106.58 206.086 101.997 201.546C97.4138 197.005 91.6022 193.919 85.2854 192.67C78.9686 191.422 72.4258 192.068 66.4717 194.526C60.5175 196.985 55.415 201.148 51.7996 206.498C48.1842 211.847 46.2156 218.146 46.1388 224.611C46.0621 231.075 47.8806 237.42 51.368 242.854C54.8554 248.288 59.8576 252.573 65.7517 255.173C67.5836 255.987 69.6179 256.227 71.5877 255.86C73.5576 255.493 75.3711 254.537 76.7904 253.117C79.8346 250.044 83.4544 247.607 87.4413 245.945C91.4281 244.284 95.703 243.431 100.019 243.437Z" fill="white"/>
<path d="M83.1622 233.461C89.1472 233.461 93.999 228.589 93.999 222.578C93.999 216.568 89.1472 211.696 83.1622 211.696C77.1772 211.696 72.3254 216.568 72.3254 222.578C72.3254 228.589 77.1772 233.461 83.1622 233.461Z" fill="#F9A825"/>
</g>
<defs>
<clipPath id="clip0">
<rect width="335" height="318" fill="white"/>
</clipPath>
</defs>
</svg>
